<svg xmlns="http://www.w3.org/2000/svg" viewBox="0 0 512 512"><path transform="translate(0 448) scale(1 -1)" d="M466 161Q473 128 457 98Q462 62 440 31Q439 -13 411.0 -38.5Q383 -64 327 -64Q324 -64 316.0 -64.0Q308 -64 305 -64Q260 -64 225.5 -54.0Q191 -44 167.5 -34.0Q144 -24 127 -24Q124 -34 115.5 -41.0Q107 -48 96 -48H32Q19 -48 9.5 -38.5Q0 -29 0 -16V224Q0 237 9.5 246.5Q19 256 32 256H131Q141 265 165.0 296.5Q189 328 200 339Q203 343 209.0 372.0Q215 401 229.5 424.5Q244 448 271 448Q316 448 341.5 422.0Q367 396 367 343Q367 320 358 297H394Q430 297 455.0 271.0Q480 245 480 211Q480 185 466 161ZM405 107Q420 122 420.5 142.5Q421 163 410 173Q417 173 424.5 185.0Q432 197 432 211Q432 225 421.0 237.0Q410 249 394 249H290Q290 267 304.5 295.5Q319 324 319 343Q319 356 318.0 363.0Q317 370 313.0 380.0Q309 390 298.5 395.0Q288 400 271 400Q263 392 256.0 356.5Q249 321 233 305Q225 297 205.0 270.0Q185 243 168.0 225.5Q151 208 139 208H128V22Q153 22 207.5 3.0Q262 -16 300 -16H337Q401 -16 391 50Q403 57 408.0 74.0Q413 91 405 107ZM81.0 -1.0Q88 6 88.0 16.0Q88 26 81.0 33.0Q74 40 64.0 40.0Q54 40 47.0 33.0Q40 26 40.0 16.0Q40 6 47.0 -1.0Q54 -8 64.0 -8.0Q74 -8 81.0 -1.0Z"/></svg>