<svg xmlns="http://www.w3.org/2000/svg" viewBox="0 0 512 512"><path transform="translate(0 448) scale(1 -1)" d="M504 199Q504 115 456.0 53.5Q408 -8 334.5 -30.5Q261 -53 185 -32Q183 -31 182.0 -31.0Q181 -31 180.0 -31.0Q179 -31 177.0 -31.0Q175 -31 173.5 -31.5Q172 -32 169.5 -33.0Q167 -34 164.5 -35.5Q162 -37 157.0 -39.0Q152 -41 148.0 -43.0Q144 -45 136.5 -48.0Q129 -51 122 -54Q118 -56 114 -56Q106 -56 100.0 -50.5Q94 -45 94 -37Q94 -30 94.0 -21.5Q94 -13 93.5 -9.0Q93 -5 93.0 0.0Q93 5 92.5 7.0Q92 9 91.5 11.5Q91 14 90.5 15.5Q90 17 89.0 18.5Q88 20 86 21Q8 91 8 199Q8 303 79.5 371.5Q151 440 256.5 440.0Q362 440 433.0 371.5Q504 303 504 199ZM406 255Q411 263 404.0 269.5Q397 276 389 270L310 211Q306 208 301.0 208.0Q296 208 292 211L234 255Q224 262 212 262Q191 262 180 245L107 129Q102 121 109.5 114.0Q117 107 124 113L203 173Q207 176 212.0 176.0Q217 176 221 173L279 129Q289 122 301 122Q322 122 333 139Z"/></svg>